<?xml version="1.0" encoding="UTF-8"?>
<svg id="_レイヤー_1" data-name="レイヤー 1" xmlns="http://www.w3.org/2000/svg" viewBox="0 0 1178.5 589.03">
  <defs>
    <style>
      .cls-1, .cls-2 {
        fill: #fff;
        stroke: #000;
        stroke-miterlimit: 10;
      }

      .cls-2 {
        font-family: ToppanBunkyuMidashiMinchoStdN-ExtraBold-83pv-RKSJ-H, 'Toppan Bunkyu Midashi Mincho';
        font-size: 68.52px;
      }
    </style>
  </defs>
  <g>
    <path class="cls-1" d="M933.13,243.53c10.29,13.16,20.02,27.08,27.98,42.44,7.46,14.38,10.86,30.37,16.97,45.17,1.08-.34,2.14-.57,3.08-.77,3.25-.65,7.27,1.52,10.24-.63,2.48-1.8,4.49-5.23,7.3-6.12-4.37-11.15-7.9-22.5-10.93-35.07-3.2-13.27-2.54-33.74-10.82-44.46-8.32-10.77-28.39-17.57-39.86-22.86-11.03-5.07-22.31-9.63-33.62-12.66,8.79,2.35,23.44,27.01,29.66,34.94h0ZM545.05,.76c.21,.11,.44,.23,.65,.35,17.11,9.23,34.75,17.05,52.88,23.38,18.75,6.57,37.78,10.77,56.6,16.39,15.44,4.62,30.55,9.59,46.04,13.68,37.36,9.87,79.61,9.25,117.84,9.62,33.4,.31,67.03,2.16,100.5,.87,22.09-.85,37.68-11.25,59.06-2.05,18.91,8.13,40.28-5.28,59.07,3.86,18.8,9.16,20.92,46.67,22.23,67.28,.92,14.47,.73,28.46,4.58,42.74,3.86,14.29,10.1,27.07,12.96,41.95,2.29,11.83,3.6,20.44,1.75,32.54-2.28,14.9-5.84,29.37-8.14,43.96-2.03,12.8,1.12,53-15.63,48.9,.2,15.25,7.1,52.91-17.15,44.32-9.54-3.37-15.77-12.52-20.84-22.82-.28,.21-.6,.41-1.03,.58l-.35,9.33,1.24,1.71s2.79,3.52,1.92,5.81c.14,.03,.3,.07,.44,.09,5.26,2.37,14.18,6.87,14.57,10.48,.28,2.5-3.54,4.58-15.47,5.22-.96,.06-11.4,.79-21.64,.4-9.95-.37-19.72-1.86-20.63-1.97-11.88-1.53-15.56-3.89-15.13-6.36,.64-3.59,9.92-7.43,15.36-9.4,.1-.01,.22-.03,.34-.04-.19-.62-.1-1.32,.11-2-8.15,7.75-18.79,6.79-28.26,.62-11.95-7.79-15.22-25.42-21.85-38.39-2.73-5.3-6.11-10.04-11.11-13.4-18.23-12.28-39.86-20.93-60.48-25.55-12.71-2.85-25.94-3.66-38.7-5.41-31.43-4.26-62.45-20.13-89.34-39.68-13.49-9.83-27.46-23.07-42.01-30.07-12.16-5.88-26.82-7.85-39.44-10.82-45.56-10.72-91.82-18.11-138.25-22.68L545.05,.76h0Z"/>
    <path class="cls-1" d="M964.84,476.02c9.83-7.04,15.74-57.27,17.38-73.16,4.68,.75,9.78,1.27,15.16,1.47,5.37,.2,10.5,.04,15.22-.35,.44,15.98,2.57,66.52,11.85,74.27,0,0,6.04,5.46-.31,8.17,0,0,12.87,18.76,1.03,23.21,0,0,14.49,11.33-32.09,9.58-46.6-1.75-31.3-11.95-31.3-11.95-11.46-5.33,2.77-23.07,2.77-23.07-6.12-3.17,.31-8.17,.31-8.17h0Z"/>
  </g>
  <text class="cls-2" transform="translate(311.38 361.54)"><tspan x="0" y="0">ギャンビット</tspan></text>
  <g>
    <path class="cls-1" d="M178.24,542.72c-4.08-6.12-6.46-10.54-11.22-11.22-4.42-.34-6.12,3.06-11.56,10.2-8.84,11.56-22.43,24.47-51.66,22.43C44.33,559.72-3.93,492.76,.82,431.58c4.76-62.88,62.54-125.07,131.53-119.98,23.45,1.7,40.45,13.6,51.66,30.59,1.7,2.72,3.06,3.74,4.42,4.08,1.36,0,3.4-1.36,6.46-5.1l18.01-22.09c1.7-2.04,2.72-2.38,4.42-2.38s3.06,1.36,3.06,3.74v.68c-1.02,14.27-3.4,27.53-5.44,54.04-1.7,22.09-1.02,46.56-1.7,49.28-.68,2.72-2.04,3.74-4.42,3.74-2.04,0-3.4-1.36-4.42-4.42-4.08-16.31-6.8-33.31-13.59-49.28-11.9-28.21-30.25-50.64-59.48-52.68-43.84-3.4-64.92,24.13-71.71,114.2-6.8,92.79,10.54,114.54,49.28,117.6,28.21,2.04,44.52-20.05,46.9-52.34l3.06-41.47c.34-5.78-3.06-9.52-8.5-10.2l-29.23-4.08c-3.06-.68-4.76-3.06-4.42-5.44,.34-2.38,2.04-4.76,5.1-4.42,2.38,0,27.19,3.4,68.99,6.46,33.31,2.38,55.74,2.72,57.78,3.06,3.06,0,4.08,2.72,4.08,5.1-.34,2.38-2.04,4.42-4.76,4.76h-25.49c-7.48,0-10.2,2.38-10.54,8.84l-4.76,63.56c-1.36,13.94-2.04,37.73-2.38,41.46,0,2.72-2.04,4.76-4.76,4.42-2.38,0-3.4-2.38-4.76-4.08l-16.99-26.51Z"/>
    <path class="cls-1" d="M315.55,553.94c-28.89,2.72-45.54-11.9-47.58-33.31-2.38-22.43,9.52-38.07,27.53-46.9,15.97-8.16,38.07-15.97,47.92-20.39,8.16-3.74,8.16-6.12,7.82-11.22l-2.38-22.43c-2.04-21.07-7.14-27.87-29.57-25.83-13.6,1.36-28.21,6.8-27.53,12.92,.34,2.72,2.38,3.4,4.42,4.76l3.06,1.36c7.82,4.08,12.24,11.22,12.92,18.35,1.7,16.31-10.2,25.49-22.77,26.51-12.58,1.36-26.17-5.78-27.87-22.43-1.02-10.88,4.08-23.45,16.99-33.31,11.56-9.18,29.23-15.63,48.94-17.33,40.45-4.08,63.9,9.52,66.62,37.73l9.18,98.22c1.02,9.18,4.76,13.59,13.94,12.58,14.95-1.36,12.92-27.87,11.9-37.73-1.36-11.22-2.38-19.71-2.38-21.41-.34-2.38,1.36-4.08,3.06-4.08,1.36-.34,3.4,1.02,4.08,3.4,1.02,6.46,2.72,15.3,3.4,22.09,.68,8.16,1.02,16.99-.68,25.15-3.06,16.65-12.58,23.11-32.97,24.81-9.52,1.02-20.39,.68-26.51-1.7-10.2-3.74-16.99-12.58-18.69-25.15-5.1,21.75-22.77,33.31-42.82,35.35Zm36.71-98.9c-5.78,3.4-11.9,6.12-18.01,9.18-6.46,3.06-12.24,6.46-16.31,10.88-7.14,8.16-8.16,18.69-6.46,38.41,2.04,19.37,6.12,29.57,16.99,28.21,7.82-.68,16.99-7.14,22.09-20.39,4.08-10.2,5.78-23.79,4.42-40.45l-2.72-25.83Z"/>
    <path class="cls-1" d="M690.09,546.8c-12.58-1.02-29.57-.34-40.45-1.7h-.34c-2.04,0-4.76-2.04-4.76-4.76,0-2.04,1.7-4.42,4.76-4.42l13.94,1.02c3.06,0,3.4-2.04,3.4-4.42l7.14-103.66c.68-13.94,.34-33.99-18.69-35.01-19.03-1.36-34.33,19.37-35.69,49.28l-5.1,85.31c-.34,3.4,0,5.1,3.4,5.1l12.24,1.36c3.06,0,4.76,2.04,4.76,4.42,0,2.72-2.04,4.76-4.08,4.76h-.68c-13.93-1.02-27.87-2.38-41.8-3.4-12.58-1.02-25.15-.34-36.03-1.36h-.68c-2.04,0-4.08-2.04-4.08-4.76,0-2.38,1.36-4.42,4.42-4.42l12.92,.68c3.4,0,4.42-1.36,5.1-5.44l6.12-102.3c1.02-14.27,1.36-33.99-17.67-35.35-19.37-1.02-35.69,24.81-36.71,49.28l-5.1,85.31c-.34,3.4,0,5.1,3.4,5.1l12.58,1.36c2.72,.34,4.76,2.72,4.76,4.76,0,2.72-2.72,4.76-4.76,4.42h-.68c-10.88-1.02-30.25-3.06-42.82-3.4-13.94-1.02-24.47-.34-38.41-1.36h-.68c-2.04,0-4.42-2.38-4.42-5.1,.34-2.04,2.04-3.74,5.44-4.08l16.65,.34c2.72-.34,4.08-1.36,4.76-4.42l7.14-122.69c.34-5.78-2.04-9.18-8.5-9.52l-16.99-2.38c-2.72-.34-4.08-3.4-4.08-5.78s1.7-4.42,4.42-4.08c15.97,.68,48.6,1.36,66.28,.68,2.72,0,4.42,1.7,4.42,4.42l-1.36,24.47h.68c9.18-19.03,27.19-28.89,47.92-27.87,20.39,1.36,41.8,13.6,46.9,33.99h.68c4.08-11.21,19.71-30.25,52.68-27.87,28.89,1.36,46.9,22.77,45.54,52.34l-6.46,98.56c-.34,3.06,.34,4.08,3.4,4.42l17.67,2.38c3.06,.68,4.76,2.72,4.76,5.1,0,2.72-2.38,4.08-4.42,4.08-14.61-.68-28.89-2.04-42.82-3.4Z"/>
    <path class="cls-1" d="M769.95,327.92c0-4.76-2.38-7.14-6.12-7.48l-18.69-1.02c-1.36,0-2.72-.34-2.72-3.06v-2.72c0-2.04,1.02-3.4,2.72-3.4,25.49-.68,61.52-3.06,68.31-3.4l.34,.68,2.38,64.58c1.02,26.85,1.36,40.78,1.02,53.7h1.02c5.78-21.75,19.03-37.39,41.13-38.07,28.89-1.02,71.37,35.01,73.07,81.23,1.36,41.13-31.61,84.97-70.01,86.33-14.27,.34-26.51-4.76-35.69-14.61-2.72-2.38-4.76-5.78-7.48-8.84-1.7-2.38-4.08-2.72-6.46-2.72-2.72,0-5.78,1.7-9.18,5.78-6.46,6.46-11.55,14.61-17.67,22.09-1.7,1.7-3.06,2.72-4.42,2.72-2.04,0-3.74-1.36-3.74-4.42-.68-18.35-1.02-37.39-1.7-55.74l-6.12-171.64Zm114.2,142.75c-2.04-63.56-10.2-72.73-30.25-72.05-21.75,1.02-35.69,23.45-33.99,74.43,1.7,49.28,16.31,72.73,39.09,72.05,21.41-.68,27.53-10.54,25.15-74.43Z"/>
  </g>
  <path class="cls-1" d="M1049.17,521.65c13.33-32.91,28.38-69.21,38.54-93.85l.78-2.61c.1-.33,.29-.98-.36-1.17l-27.89-11.13c-1.86-.91-2.68-2.92-1.77-4.78,.48-1.63,1.85-2.64,4.46-1.87l12.34,2.61c19.28,4.32,35.38-3.31,64.62-39.65l12.4-15.46c2.79-3.43,6.21-4.18,8.49-3.5,2.51,1.1,4.11,4.06,2.62,7.87l-28.54,70.94c-.19,.65-.06,1.4,.59,1.59l1.53,.81c12.74,4.85,28.74,10.67,37.02,13.84l.98,.29c2.51,1.1,3.82,5.04,2.53,8.2-1.2,2.84-4.58,4.67-7.41,3.47l-.98-.29c-8.51-3.59-24.21-10.39-36.53-15.47l-1.3-.39c-.65-.19-1.07,.03-1.27,.69l-41.35,103.3c-5.18,12.64-5.47,26.74,9.13,32.5,12.32,5.08,20.24-2.49,27.02-12.18,6.07-8.48,12.13-20.51,20.09-40.12,1-2.18,3.44-3.23,5.63-2.23,1.86,.91,3.1,2.69,2.42,4.98-.87,2.93-2.46,7.07-3.95,10.88-5.27,12.97-12.41,25.03-16.4,31.29-15.35,20.61-30.68,22.08-52.8,13.02-25.06-9.93-42.72-30.43-31.4-58.98l.78-2.61Z"/>
</svg>